<svg xmlns="http://www.w3.org/2000/svg" xmlns:xlink="http://www.w3.org/1999/xlink" fill="none" version="1.1" width="247.14642333984375" height="149.5646209716797" viewBox="0 0 247.14642333984375 149.5646209716797"><defs><filter id="master_svg_0" filterUnits="userSpaceOnUse" color-interpolation-filters="sRGB" x="-5" y="-6.736483980303092" width="206.242436385191" height="161.1491825525154"><feFlood flood-opacity="0" result="BackgroundImageFix"/><feColorMatrix in="SourceAlpha" type="matrix" values="0 0 0 0 0 0 0 0 0 0 0 0 0 0 0 0 0 0 127 0"/><feOffset dy="0" dx="0"/><feGaussianBlur stdDeviation="2.5"/><feColorMatrix type="matrix" values="0 0 0 0 0 0 0 0 0 0 0 0 0 0 0 0 0 0 1 0"/><feBlend mode="normal" in2="BackgroundImageFix" result="effect1_dropShadow"/><feBlend mode="normal" in="SourceGraphic" in2="effect1_dropShadow" result="shape"/><feColorMatrix in="SourceAlpha" type="matrix" result="hardAlpha" values="0 0 0 0 0 0 0 0 0 0 0 0 0 0 0 0 0 0 127 0"/><feOffset dy="0" dx="0"/><feGaussianBlur stdDeviation="2.5"/><feComposite in2="hardAlpha" operator="arithmetic" k2="-1" k3="1"/><feColorMatrix type="matrix" values="0 0 0 0 0 0 0 0 0 0 0 0 0 0 0 0 0 0 1 0"/><feBlend mode="normal" in2="shape" result="effect2_innerShadow"/></filter></defs><g><g filter="url(#master_svg_0)" style="mix-blend-mode:passthrough"><path d="M174.296,47.61827302246094Q151.423,37.221363022460935,132.849,35.83579302246094Q116.506,34.61670302246094,104.075,40.424533022460935Q92.9928,45.60237302246094,85.3969,56.16367302246094Q78.4149,65.87127302246094,74.9546,79.19807302246093Q71.7474,91.55007302246094,72.0474,104.91717302246094Q72.3322,117.60707302246094,75.6595,128.03037302246094Q78.8679,138.08147302246095,83.8972,142.96047302246092Q88.3182,147.24847302246093,93.3174,146.17747302246096Q95.4075,145.72947302246092,95.9656,145.02747302246092Q96.2491,144.67047302246095,96.1197,143.62447302246093Q95.8688,141.59747302246092,94.1842,138.49747302246095Q92.3617,135.14447302246094,89.0543,130.96747302246092Q82.5993,122.81407302246093,71.538,112.73277302246093Q61.1254,103.24267302246093,48.7376,93.93977302246094Q36.6237,84.84257302246094,25.7514,78.26447302246095Q14.7242,71.59267302246093,7.97364,69.32107302246094Q5.04804,68.33667302246093,3.65653,68.39747302246093Q3.53794,68.40267302246093,3.50906,68.40957302246093Q3.64902,68.37617302246093,3.83358,68.27617302246094Q4.54279,67.89227302246094,4.87168,67.13847302246094Q4.9735,66.90517302246093,4.99761,66.71817302246095L5.00011,66.70197302246095Q4.99939,66.75087302246094,5.00555,66.82607302246095Q5.05763,67.46227302246093,5.44275,68.55167302246093Q6.50509,71.55667302246093,9.58044,76.37747302246095Q26.6061,103.06657302246094,46.115,103.06657302246094Q66.1325,103.06657302246094,90.6422,75.72887302246093L98.0879,82.40427302246093Q70.5976,113.06657302246094,46.115,113.06657302246094Q21.1239,113.06657302246094,1.14981,81.75567302246094Q-2.54141,75.96937302246093,-3.98543,71.88467302246093Q-5.83141,66.66307302246094,-4.29377,63.13917302246094Q-3.24585,60.737573022460936,-0.927716,59.48247302246094Q0.868695,58.509773022460934,3.21976,58.407073022460935Q6.47201,58.26487302246093,11.1629,59.843273022460934Q18.9579,62.46627302246094,30.928,69.70857302246094Q42.2284,76.54567302246093,54.7426,85.94347302246094Q67.5103,95.53177302246094,78.2741,105.34187302246093Q89.9356,115.97017302246094,96.8945,124.75987302246094Q105.152,135.19047302246094,106.044,142.39647302246095Q106.689,147.60647302246093,103.795,151.24847302246093Q101.007,154.75647302246094,95.4127,155.95547302246092Q90.217,157.06847302246092,85.3158,155.41547302246096Q80.806,153.89347302246094,76.9344,150.13747302246094Q70.1044,143.51247302246094,66.1331,131.07147302246094Q62.3671,119.27367302246094,62.0499,105.14157302246093Q61.7187,90.38347302246095,65.2756,76.68487302246093Q69.2054,61.54947302246094,77.2786,50.32467302246094Q86.3972,37.64636302246094,99.8424,31.364599022460936Q114.642,24.449883022460938,133.592,25.86350302246094Q153.941,27.38143302246094,178.434,38.51463302246094L174.296,47.61827302246094Z" transform="matrix(0.9848077297210693,-0.1736481785774231,0.1736481785774231,0.9848077297210693,-5.31805760842235,0.46527046357732615)" fill="#F0F0F0" fill-opacity="1"/></g><g style="mix-blend-mode:passthrough"><path d="M171.27142333984375,90.02453996582031L153.05262333984376,76.30583996582031L135.27142333984375,93.10273996582032L130.58392333984375,88.30583996582031L147.58392333984375,72.16523996582032L134.91204333984376,62.58703996582031L139.08392333984375,57.24333996582031L152.55262333984376,67.4464399658203L166.22452333984376,54.52453996582031L170.91202333984376,59.44643996582032L158.02142333984375,71.60273996582032L175.30262333984376,84.66523996582032L171.27142333984375,90.02453996582031ZM178.39642333984375,95.52453996582031L174.58392333984375,91.8839399658203L179.49022333984374,46.58703996582031L183.30262333984376,43.58703996582031L220.38082333984374,49.02453996582031L219.44332333984374,55.74333996582031L185.81832333984374,50.80583996582031L181.78702333984376,88.3839399658203L222.03702333984376,84.10273996582032L222.75582333984374,90.8214399658203L178.39642333984375,95.52453996582031Z" fill="#F0F0F0" fill-opacity="1"/><path d="M172.45692333984374,96.76633996582031L174.94332333984374,99.14073996582032L176.61922333984376,100.7410399658203L228.25982333984376,95.26593996582031L226.47712333984373,78.6022399658203L187.41942333984375,82.75663996582031L190.23522333984374,56.508039965820316L223.69942333984375,61.421939965820314L226.01902333984376,44.79793996582031L181.90062333984375,38.32799996582031L174.74572333984375,43.95813996582031L173.55302333984375,54.969439965820314L166.41002333984375,47.469439965820314L152.19612333984375,60.90363996582031L138.17517333984375,50.28223996582031L127.84555333984375,63.51343996582031L139.86552333984375,72.5988399658203L123.46266333984374,88.1724399658203L135.13122333984376,100.11323996582031L153.41732333984376,82.8394399658203L168.26372333984375,94.01883996582032L172.26002333984374,97.02803996582031L172.45692333984374,96.76633996582031ZM174.27702333984377,86.02873996582031L171.27142333984375,90.02453996582031L169.87032333984376,88.9695399658203L167.27722333984374,87.01693996582031L153.05262333984376,76.30583996582031L135.27142333984375,93.10273996582032L134.07881333984375,91.8822399658203L130.58392333984375,88.30583996582031L134.21029333984376,84.86273996582031L143.90852333984375,75.65473996582031L147.58392333984375,72.16523996582032L143.54082333984374,69.10923996582031L138.90129333984376,65.6023399658203L134.91204333984376,62.58703996582031L139.08392333984375,57.24333996582031L152.55262333984376,67.4464399658203L166.22452333984376,54.52453996582031L167.46372333984374,55.82573996582031L170.91202333984376,59.44643996582032L167.27432333984376,62.87693996582031L161.71062333984375,68.1236399658203L158.02142333984375,71.60273996582032L162.06672333984375,74.6604399658203L170.71242333984375,81.1955399658203L175.30262333984376,84.66523996582032L174.27702333984377,86.02873996582031ZM175.98852333984377,78.91593996582031L174.58392333984375,91.8839399658203L175.48332333984376,92.74283996582031L176.21572333984375,93.4422399658203L176.74582333984375,93.94833996582031L178.39642333984375,95.52453996582031L217.78362333984376,91.34863996582031L222.75582333984374,90.8214399658203L222.22392333984374,85.84983996582031L222.03702333984376,84.10273996582032L186.87382333984374,87.8429399658203L181.78702333984376,88.3839399658203L182.29022333984375,83.69333996582031L182.29162333984374,83.68033996582031L182.33272333984377,83.29773996582031L185.28452333984376,55.78103996582031L185.81832333984374,50.80583996582031L190.76902333984376,51.532839965820315L214.49622333984377,55.01693996582031L219.44332333984374,55.74333996582031L220.13432333984375,50.791139965820314L220.38082333984374,49.02453996582031L183.30262333984376,43.58703996582031L179.49022333984374,46.58703996582031L175.98852333984377,78.91593996582031ZM171.33992333984375,75.40213996582031L172.48432333984374,64.83643996582032L165.75592333984375,71.18143996582032L171.33992333984375,75.40213996582031Z" fill-rule="evenodd" fill="#787878" fill-opacity="1"/></g></g></svg>