<?xml version="1.0" standalone="no"?><!DOCTYPE svg PUBLIC "-//W3C//DTD SVG 1.1//EN" "http://www.w3.org/Graphics/SVG/1.1/DTD/svg11.dtd"><svg t="1645259792466" class="icon" viewBox="0 0 1024 1024" version="1.1" xmlns="http://www.w3.org/2000/svg" p-id="2114" xmlns:xlink="http://www.w3.org/1999/xlink" width="200" height="200"><defs><style type="text/css"></style></defs><path d="M768.033587 993.792H256.033587c-48.128 0-87.04-38.912-87.04-87.04V431.616H29.217587c-12.288 0-23.552-8.192-27.648-19.968-4.096-11.776 0-25.088 10.24-32.256L462.881587 45.568c0.512-0.512 1.024-0.512 1.024-1.024 29.184-19.456 67.072-19.456 96.256 0 0.512 0.512 1.024 0.512 1.024 1.024l451.072 333.824c10.24 7.68 14.336 20.48 10.24 32.256-4.096 11.776-14.848 19.968-27.648 19.968H855.073587v475.648c0 47.616-39.424 86.528-87.04 86.528zM116.769587 373.76h81.408c15.872 0 29.184 12.8 29.184 29.184v504.32c0 15.872 12.8 29.184 29.184 29.184H768.033587c15.872 0 29.184-12.8 29.184-29.184V402.432c0-15.872 12.8-29.184 29.184-29.184h81.408L527.393587 92.672c-9.728-6.144-21.504-6.144-31.232 0L116.769587 373.76z" fill="#333333" p-id="2115"></path><path d="M666.657587 579.072H357.409587c-15.872 0-29.184-12.8-29.184-29.184s12.8-29.184 29.184-29.184h309.248c15.872 0 29.184 12.8 29.184 29.184s-13.312 29.184-29.184 29.184zM666.657587 710.144H357.409587c-15.872 0-29.184-12.8-29.184-29.184 0-15.872 12.8-29.184 29.184-29.184h309.248c15.872 0 29.184 12.8 29.184 29.184-0.512 16.384-13.312 29.184-29.184 29.184z" fill="#333333" p-id="2116"></path><path d="M512.033587 993.792c-15.872 0-29.184-12.8-29.184-29.184v-387.072c0-15.872 12.8-29.184 29.184-29.184s29.184 12.8 29.184 29.184v387.072c0 16.384-13.312 29.184-29.184 29.184z" fill="#333333" p-id="2117"></path><path d="M512.033587 579.072c-7.168 0-14.848-3.072-20.48-8.704-11.264-11.264-11.264-29.696 0-40.96l136.704-136.704c11.264-11.264 29.696-11.264 40.96 0s11.264 29.696 0 40.96L532.513587 570.368c-5.632 5.632-13.312 8.704-20.48 8.704z" fill="#333333" p-id="2118"></path><path d="M512.033587 579.072c-7.168 0-14.848-3.072-20.48-8.704L354.849587 433.664c-11.264-11.264-11.264-29.696 0-40.96s29.696-11.264 40.96 0l136.704 136.704c11.264 11.264 11.264 29.696 0 40.96-5.632 5.632-13.312 8.704-20.48 8.704z" fill="#333333" p-id="2119"></path></svg>