<svg xmlns="http://www.w3.org/2000/svg" xmlns:xlink="http://www.w3.org/1999/xlink" fill="none" version="1.1" width="247.14642333984375" height="149.5646209716797" viewBox="0 0 247.14642333984375 149.5646209716797"><defs><filter id="master_svg_0" filterUnits="userSpaceOnUse" color-interpolation-filters="sRGB" x="-5" y="-6.736483980303092" width="206.242436385191" height="161.1491825525154"><feFlood flood-opacity="0" result="BackgroundImageFix"/><feColorMatrix in="SourceAlpha" type="matrix" values="0 0 0 0 0 0 0 0 0 0 0 0 0 0 0 0 0 0 127 0"/><feOffset dy="0" dx="0"/><feGaussianBlur stdDeviation="2.5"/><feColorMatrix type="matrix" values="0 0 0 0 0 0 0 0 0 0 0 0 0 0 0 0 0 0 1 0"/><feBlend mode="normal" in2="BackgroundImageFix" result="effect1_dropShadow"/><feBlend mode="normal" in="SourceGraphic" in2="effect1_dropShadow" result="shape"/><feColorMatrix in="SourceAlpha" type="matrix" result="hardAlpha" values="0 0 0 0 0 0 0 0 0 0 0 0 0 0 0 0 0 0 127 0"/><feOffset dy="0" dx="0"/><feGaussianBlur stdDeviation="2.5"/><feComposite in2="hardAlpha" operator="arithmetic" k2="-1" k3="1"/><feColorMatrix type="matrix" values="0 0 0 0 0 0 0 0 0 0 0 0 0 0 0 0 0 0 1 0"/><feBlend mode="normal" in2="shape" result="effect2_innerShadow"/></filter></defs><g><g filter="url(#master_svg_0)" style="mix-blend-mode:passthrough"><path d="M174.296,47.61827302246094Q151.423,37.221363022460935,132.849,35.83579302246094Q116.506,34.61670302246094,104.075,40.424533022460935Q92.9928,45.60237302246094,85.3969,56.16367302246094Q78.4149,65.87127302246094,74.9546,79.19807302246093Q71.7474,91.55007302246094,72.0474,104.91717302246094Q72.3322,117.60707302246094,75.6595,128.03037302246094Q78.8679,138.08147302246095,83.8972,142.96047302246092Q88.3182,147.24847302246093,93.3174,146.17747302246096Q95.4075,145.72947302246092,95.9656,145.02747302246092Q96.2491,144.67047302246095,96.1197,143.62447302246093Q95.8688,141.59747302246092,94.1842,138.49747302246095Q92.3617,135.14447302246094,89.0543,130.96747302246092Q82.5993,122.81407302246093,71.538,112.73277302246093Q61.1254,103.24267302246093,48.7376,93.93977302246094Q36.6237,84.84257302246094,25.7514,78.26447302246095Q14.7242,71.59267302246093,7.97364,69.32107302246094Q5.04804,68.33667302246093,3.65653,68.39747302246093Q3.53794,68.40267302246093,3.50906,68.40957302246093Q3.64902,68.37617302246093,3.83358,68.27617302246094Q4.54279,67.89227302246094,4.87168,67.13847302246094Q4.9735,66.90517302246093,4.99761,66.71817302246095L5.00011,66.70197302246095Q4.99939,66.75087302246094,5.00555,66.82607302246095Q5.05763,67.46227302246093,5.44275,68.55167302246093Q6.50509,71.55667302246093,9.58044,76.37747302246095Q26.6061,103.06657302246094,46.115,103.06657302246094Q66.1325,103.06657302246094,90.6422,75.72887302246093L98.0879,82.40427302246093Q70.5976,113.06657302246094,46.115,113.06657302246094Q21.1239,113.06657302246094,1.14981,81.75567302246094Q-2.54141,75.96937302246093,-3.98543,71.88467302246093Q-5.83141,66.66307302246094,-4.29377,63.13917302246094Q-3.24585,60.737573022460936,-0.927716,59.48247302246094Q0.868695,58.509773022460934,3.21976,58.407073022460935Q6.47201,58.26487302246093,11.1629,59.843273022460934Q18.9579,62.46627302246094,30.928,69.70857302246094Q42.2284,76.54567302246093,54.7426,85.94347302246094Q67.5103,95.53177302246094,78.2741,105.34187302246093Q89.9356,115.97017302246094,96.8945,124.75987302246094Q105.152,135.19047302246094,106.044,142.39647302246095Q106.689,147.60647302246093,103.795,151.24847302246093Q101.007,154.75647302246094,95.4127,155.95547302246092Q90.217,157.06847302246092,85.3158,155.41547302246096Q80.806,153.89347302246094,76.9344,150.13747302246094Q70.1044,143.51247302246094,66.1331,131.07147302246094Q62.3671,119.27367302246094,62.0499,105.14157302246093Q61.7187,90.38347302246095,65.2756,76.68487302246093Q69.2054,61.54947302246094,77.2786,50.32467302246094Q86.3972,37.64636302246094,99.8424,31.364599022460936Q114.642,24.449883022460938,133.592,25.86350302246094Q153.941,27.38143302246094,178.434,38.51463302246094L174.296,47.61827302246094Z" transform="matrix(0.9848077297210693,-0.1736481785774231,0.1736481785774231,0.9848077297210693,-5.31805760842235,0.46527046357732615)" fill="#F0F0F0" fill-opacity="1"/></g><g style="mix-blend-mode:passthrough"><path d="M131.20892333984375,95.24333996582031L130.55267333984375,88.60273996582032L170.80262333984376,85.10273996582032L167.56832333984374,70.60273996582032L136.38080333984374,74.16523996582032L133.14642333984375,70.74333996582031L133.14642333984375,46.94643996582032L136.86517333984375,43.72773996582031L175.27142333984375,47.22773996582031L174.69332333984374,53.94643996582032L139.91202333984376,50.80583996582031L139.91202333984376,67.02453996582031L169.80262333984376,63.66523996582031L173.47452333984376,66.24333996582031L178.28702333984376,87.3839399658203L175.19332333984374,91.52453996582031L131.20892333984375,95.24333996582031Z" fill="#C85000" fill-opacity="1"/><path d="M125.07937333984376,84.05973996582031L126.23316333984376,95.7350399658203L126.71797333984375,100.64083996582032L177.85372333984375,96.31753996582032L183.67502333984373,88.52633996582031L177.92262333984377,63.257139965820315L171.38702333984375,58.66823996582031L179.24442333984376,59.37773996582031L180.67952333984374,42.69983996582032L135.20098333984376,38.55533996582031L128.14642333984375,44.66133996582031L128.14642333984375,72.7324399658203L134.46440333984376,79.41663996582031L163.66732333984373,76.0808399658203L164.67902333984375,80.61633996582032L125.07937333984376,84.05973996582031ZM169.70442333984374,80.1793399658203L170.80262333984376,85.10273996582032L165.77722333984374,85.5397399658203L135.53422333984375,88.16953996582032L130.55267333984375,88.60273996582032L131.04443333984375,93.57883996582031L131.20892333984375,95.24333996582031L175.19332333984374,91.52453996582031L176.61952333984374,89.61573996582031L176.86032333984375,89.29343996582031L178.28702333984376,87.3839399658203L173.47452333984376,66.24333996582031L169.80262333984376,63.66523996582031L144.91202333984376,66.46263996582032L139.91202333984376,67.02453996582031L139.91202333984376,50.80583996582031L144.91202333984376,51.25733996582031L169.71352333984376,53.496839965820314L174.69332333984374,53.94643996582032L175.12192333984376,48.96483996582032L175.27142333984375,47.22773996582031L136.86517333984375,43.72773996582031L135.00016333984374,45.341939965820316L134.91204333984376,45.41823996582031L133.14642333984375,46.94643996582032L133.14642333984375,70.74333996582031L134.91204333984376,72.61133996582032L134.91776333984376,72.61733996582032L136.38080333984374,74.16523996582032L167.56832333984374,70.60273996582032L169.70442333984374,80.1793399658203ZM144.91202333984376,56.27763996582031L144.91202333984376,61.431139965820314L170.33812333984375,58.573539965820316L144.91202333984376,56.27763996582031Z" fill-rule="evenodd" fill="#787878" fill-opacity="1"/></g></g></svg>