<?xml version="1.0" standalone="no"?><!DOCTYPE svg PUBLIC "-//W3C//DTD SVG 1.1//EN" "http://www.w3.org/Graphics/SVG/1.1/DTD/svg11.dtd"><svg t="1645260006412" class="icon" viewBox="0 0 1024 1024" version="1.1" xmlns="http://www.w3.org/2000/svg" p-id="5779" xmlns:xlink="http://www.w3.org/1999/xlink" width="200" height="200"><defs><style type="text/css"></style></defs><path d="M432 192c54.72 0 105.184 18.336 145.6 49.184l24.096-24.16a32 32 0 1 1 45.28 45.28l-24.16 24.128A238.944 238.944 0 0 1 672 432c0 17.728-1.92 35.04-5.568 51.68l148.96 186.24a103.52 103.52 0 0 1-145.472 145.472l-186.24-148.96c-16.64 3.648-33.92 5.568-51.68 5.568a238.944 238.944 0 0 1-145.6-49.184l-24.096 24.16a32 32 0 0 1-45.28-45.28l24.16-24.128A240 240 0 0 1 432 192z m214.72 369.504l-85.248 85.216 148.416 118.72a39.52 39.52 0 0 0 49.664-0.256l2.944-2.688a39.52 39.52 0 0 0 2.912-52.608l-118.72-148.384z m-69.728-229.28l-244.768 244.8a176 176 0 0 0 244.8-244.8zM432 256a176 176 0 0 0-144.992 275.776l244.768-244.8A175.2 175.2 0 0 0 432 256z" p-id="5780"></path></svg>